<svg width="16" height="16" viewBox="0 0 16 16" fill="none" xmlns="http://www.w3.org/2000/svg">
<path d="M8.06198 3.6329C6.51892 3.63358 5.26581 4.88667 5.26511 6.42978C5.26511 6.62283 5.42162 6.77939 5.61472 6.77939C5.80781 6.77939 5.96432 6.62283 5.96432 6.42978C5.96447 5.85094 6.19895 5.32851 6.57961 4.94737C6.96075 4.56675 7.48317 4.33223 8.06198 4.33209C8.25507 4.33209 8.41159 4.17558 8.41159 3.98251C8.41159 3.78944 8.25507 3.6329 8.06198 3.6329ZM7.01368 12.7227H9.11134C9.30439 12.7227 9.46095 12.5662 9.46095 12.3731C9.46095 12.18 9.30439 12.0235 9.11134 12.0235H7.01368C6.82059 12.0235 6.66407 12.18 6.66407 12.3731C6.66407 12.5662 6.82059 12.7227 7.01368 12.7227ZM6.66354 11.3243H9.46042C9.65351 11.3243 9.81003 11.1677 9.81003 10.9747C9.81003 10.7816 9.65351 10.6251 9.46042 10.6251H6.66354C6.47045 10.6251 6.31393 10.7816 6.31393 10.9747C6.31393 11.1678 6.47047 11.3243 6.66354 11.3243Z" fill="white"/>
<path d="M8.06251 2.23444C5.74978 2.23531 3.86808 4.11705 3.8672 6.42975C3.86695 7.73323 4.46322 8.89537 5.39227 9.66373L5.39408 9.6652C5.74795 9.95523 5.96534 10.3499 5.96484 10.7719V12.0235C5.96439 12.2136 6.04137 12.3925 6.16859 12.519C6.29505 12.6462 6.47394 12.7232 6.66406 12.7227H6.85209C7.09625 13.1388 7.54537 13.4207 8.0625 13.4219C8.57783 13.4208 9.02756 13.1402 9.2683 12.7227H9.46094C9.65102 12.7232 9.82992 12.6462 9.95637 12.519C10.0836 12.3925 10.1606 12.2136 10.1601 12.0235V10.7719C10.1601 10.3464 10.372 9.95394 10.7239 9.6652C11.6614 8.89631 12.2581 7.73319 12.2578 6.42975C12.2569 4.11705 10.3752 2.23531 8.06251 2.23444ZM10.2809 9.12423C9.79451 9.52017 9.46101 10.1065 9.46095 10.7719V12.0235H8.79903L8.71781 12.2592C8.62709 12.5246 8.36377 12.7241 8.0625 12.7227C7.7618 12.7242 7.49589 12.5248 7.39837 12.2541L7.31489 12.0235H6.66403V10.7719C6.66355 10.1031 6.32152 9.51884 5.83636 9.12367L5.83817 9.12514C5.06117 8.48106 4.56661 7.51753 4.56636 6.42975C4.5665 5.46644 4.95817 4.5943 5.59236 3.95962C6.227 3.32547 7.09917 2.93376 8.06248 2.93365C9.0258 2.93376 9.89794 3.32547 10.5326 3.95962C11.1668 4.59431 11.5584 5.46644 11.5586 6.42975C11.5583 7.51759 11.0642 8.48011 10.2809 9.12423Z" fill="white"/>
</svg>
