<svg width="16" height="16" viewBox="0 0 16 16" fill="none" xmlns="http://www.w3.org/2000/svg">
<g clip-path="url(#clip0_626_178)">
<path d="M9.57341 2.7191L10.1913 2.10118C11.2151 1.07738 12.875 1.07738 13.8988 2.10118C14.9226 3.12498 14.9226 4.7849 13.8988 5.8087L13.2809 6.42662M9.57341 2.7191C9.57341 2.7191 9.65061 4.03218 10.8092 5.19078C11.9678 6.34938 13.2809 6.42662 13.2809 6.42662M9.57341 2.7191L8.00001 4.29248M13.2809 6.42662L9.77381 9.93373L7.70754 12L7.60008 12.1075C7.21528 12.4922 7.02294 12.6846 6.81081 12.8501C6.56056 13.0453 6.2898 13.2126 6.00333 13.3491C5.76048 13.4649 5.50236 13.5509 4.98613 13.7229L2.79862 14.4521M2.79862 14.4521L2.2639 14.6304C2.00986 14.7151 1.72978 14.6489 1.54043 14.4596C1.35108 14.2702 1.28496 13.9901 1.36964 13.7361L1.54788 13.2014M2.79862 14.4521L1.54788 13.2014M1.54788 13.2014L2.27705 11.0139C2.44913 10.4977 2.53516 10.2395 2.6509 9.99666C2.78744 9.7102 2.95476 9.43946 3.14994 9.1892C3.3154 8.97706 3.50778 8.78473 3.89256 8.39993L5.66668 6.62581" stroke="white" stroke-linecap="round"/>
</g>
<defs>
<clipPath id="clip0_626_178">
<rect width="16" height="16" fill="white"/>
</clipPath>
</defs>
</svg>
