<svg width="16" height="16" viewBox="0 0 16 16" fill="none" xmlns="http://www.w3.org/2000/svg">
<g clip-path="url(#clip0_626_170)">
<path fill-rule="evenodd" clip-rule="evenodd" d="M2.05077 3.74487C2.15395 3.49575 2.39705 3.33333 2.66669 3.33333H9.33333C11.9107 3.33333 14 5.42267 14 7.99999C14 10.5773 11.9107 12.6667 9.33333 12.6667H3.33335C2.96516 12.6667 2.66669 12.3682 2.66669 12C2.66669 11.6318 2.96516 11.3333 3.33335 11.3333H9.33333C11.1743 11.3333 12.6667 9.84093 12.6667 7.99999C12.6667 6.15905 11.1743 4.66666 9.33333 4.66666H4.27616L5.47143 5.86192C5.73177 6.12227 5.73177 6.54438 5.47143 6.80473C5.21107 7.06506 4.78897 7.06506 4.52861 6.80473L2.19528 4.4714C2.00461 4.28073 1.94758 3.99399 2.05077 3.74487Z" fill="white"/>
</g>
<defs>
<clipPath id="clip0_626_170">
<rect width="16" height="16" fill="white"/>
</clipPath>
</defs>
</svg>
